# xmcd
#
# Track frame offsets:
#	150
#	11440
#	27160
#	42225
#	56030
#	68460
#	79365
#	92977
#	108390
#	120937
#
# Disc length: 1775 seconds
#
# Revision: 1
# Processed by: cddbd v1.5.2PL0 Copyright (c) Steve Scherf et al.
# Submitted via: audiograbber 1.83.01
#
DISCID=7606ed0a
DTITLE=Robbie Wooten - Rocky Mountains in Texas
DYEAR=1900
DGENRE=Country
TTITLE0=Rocky Mountains in Texas
TTITLE1=Heaven get ready
TTITLE2=Lonely cowboy
TTITLE3=I'm doing time
TTITLE4=Right where I was wrong
TTITLE5=She hit me where it hurts
TTITLE6=What's his name
TTITLE7=Someone like you
TTITLE8=It's so easy to say goodbye
TTITLE9=Let's call it a truce
EXTD=
EXTT0=
EXTT1=
EXTT2=
EXTT3=
EXTT4=
EXTT5=
EXTT6=
EXTT7=
EXTT8=
EXTT9=
PLAYORDER=
